<mxfile host="www.draw.io" modified="2020-01-13T07:58:34.957Z" agent="Mozilla/5.0 (Windows NT 6.1; Win64; x64) AppleWebKit/537.36 (KHTML, like Gecko) Chrome/79.0.3945.117 Safari/537.36" etag="L53H7CTQZtmbLrFZ-1O6" version="12.5.1" type="github">
  <diagram id="6QVMj45PfsqjR3qk2iQ-" name="第 1 页">
    <mxGraphModel dx="1711" dy="741" grid="1" gridSize="10" guides="1" tooltips="1" connect="1" arrows="1" fold="1" page="1" pageScale="1" pageWidth="1400" pageHeight="850" math="0" shadow="0">
      <root>
        <mxCell id="0"/>
        <mxCell id="1" parent="0"/>
        <mxCell id="CQzwhBMoTZn4bgNhd2-D-1" value="保险产品" style="rounded=0;whiteSpace=wrap;html=1;" vertex="1" parent="1">
          <mxGeometry x="240" y="50" width="120" height="60" as="geometry"/>
        </mxCell>
        <mxCell id="CQzwhBMoTZn4bgNhd2-D-2" value="商品-赠险" style="rounded=0;whiteSpace=wrap;html=1;" vertex="1" parent="1">
          <mxGeometry x="240" y="290" width="120" height="60" as="geometry"/>
        </mxCell>
        <mxCell id="CQzwhBMoTZn4bgNhd2-D-3" value="投保记录-赠险" style="rounded=0;whiteSpace=wrap;html=1;" vertex="1" parent="1">
          <mxGeometry x="640" y="440" width="120" height="60" as="geometry"/>
        </mxCell>
        <mxCell id="CQzwhBMoTZn4bgNhd2-D-5" value="产品信息设置" style="ellipse;whiteSpace=wrap;html=1;" vertex="1" parent="1">
          <mxGeometry x="440" y="40" width="120" height="80" as="geometry"/>
        </mxCell>
        <mxCell id="CQzwhBMoTZn4bgNhd2-D-6" value="赠险列表" style="ellipse;whiteSpace=wrap;html=1;" vertex="1" parent="1">
          <mxGeometry x="440" y="280" width="120" height="80" as="geometry"/>
        </mxCell>
        <mxCell id="CQzwhBMoTZn4bgNhd2-D-7" value="投保记录" style="ellipse;whiteSpace=wrap;html=1;" vertex="1" parent="1">
          <mxGeometry x="640" y="280" width="120" height="80" as="geometry"/>
        </mxCell>
        <mxCell id="CQzwhBMoTZn4bgNhd2-D-8" value="商品订单-赠险" style="rounded=0;whiteSpace=wrap;html=1;" vertex="1" parent="1">
          <mxGeometry x="440" y="440" width="120" height="60" as="geometry"/>
        </mxCell>
        <mxCell id="CQzwhBMoTZn4bgNhd2-D-9" value="赠险详情" style="ellipse;whiteSpace=wrap;html=1;" vertex="1" parent="1">
          <mxGeometry x="640" y="40" width="120" height="80" as="geometry"/>
        </mxCell>
      </root>
    </mxGraphModel>
  </diagram>
</mxfile>
